<svg width="175" height="62" viewBox="0 0 175 62" fill="none" xmlns="http://www.w3.org/2000/svg">
<g clip-path="url(#clip0)">
<path d="M43.5181 45.2098C43.4651 45.0515 43.4157 44.9201 43.3698 44.8149C42.6108 42.9194 41.1602 40.5927 39.0191 37.8343L38.9738 37.7711L38.9512 37.7401L38.9283 37.7084H38.9053C37.9335 36.4239 37.3182 35.5603 37.0605 35.1181C36.5889 34.2758 36.4833 33.4232 36.741 32.5593C36.9231 31.9066 37.607 30.5282 38.7911 28.4223C39.414 27.3062 39.9073 26.4117 40.2716 25.7377C42.899 20.8946 44.038 17.7997 43.6886 16.452L43.5529 16.137C43.4617 15.9474 43.2263 15.7739 42.8471 15.6157C42.467 15.4579 41.9812 15.4318 41.3888 15.537L34.8287 15.5998C34.7224 15.5476 34.5707 15.5525 34.373 15.6157C34.1755 15.679 34.0767 15.7108 34.0767 15.7108L33.9625 15.7899L33.8719 15.8849C33.796 15.9477 33.7124 16.0582 33.6212 16.2162C33.5305 16.3736 33.4546 16.5584 33.394 16.7689C32.6798 19.3167 31.8677 21.6855 30.9564 23.8752C30.3945 25.181 29.8784 26.3125 29.4071 27.2707C28.9365 28.2285 28.5416 28.9341 28.223 29.3865C27.9039 29.8393 27.6158 30.202 27.3572 30.476C27.0989 30.7502 26.9018 30.866 26.7653 30.8236C26.6284 30.7812 26.4996 30.7392 26.3776 30.6972C26.1651 30.5076 25.9942 30.2497 25.8654 29.9233C25.736 29.597 25.6488 29.1862 25.6033 28.6914C25.558 28.1963 25.5312 27.7704 25.5235 27.4123C25.5164 27.0546 25.5197 26.5487 25.5351 25.896C25.5509 25.243 25.558 24.8012 25.558 24.5695C25.558 23.7693 25.5692 22.9007 25.5918 21.9637C25.6148 21.0267 25.6334 20.2843 25.6489 19.7374C25.6644 19.1899 25.6716 18.6107 25.6716 18C25.6716 17.3894 25.6448 16.9105 25.5918 16.5629C25.5395 16.2158 25.4591 15.8788 25.3533 15.5521C25.2467 15.2258 25.0908 14.9733 24.8863 14.7941C24.6813 14.6151 24.4265 14.4731 24.1232 14.3676C23.3183 14.115 22.2933 13.9784 21.0478 13.9571C18.2234 13.9151 16.4085 14.168 15.6037 14.7155C15.2848 14.9468 14.9962 15.2628 14.7382 15.6626C14.4648 16.126 14.4266 16.3789 14.624 16.4205C15.5353 16.6098 16.1804 17.0626 16.5601 17.7785L16.697 18.1578C16.8034 18.4315 16.9097 18.916 17.016 19.6107C17.1222 20.3055 17.1907 21.074 17.2209 21.9158C17.2967 23.4532 17.2967 24.7692 17.2209 25.864C17.1449 26.9591 17.0731 27.8117 17.0045 28.4224C16.936 29.033 16.8336 29.5279 16.697 29.9068C16.5601 30.2858 16.4691 30.5174 16.4235 30.6015C16.3779 30.6856 16.3399 30.7385 16.3098 30.7593C16.1124 30.8642 15.9071 30.9176 15.6946 30.9176C15.4819 30.9176 15.2238 30.7701 14.9202 30.4751C14.6166 30.1802 14.3015 29.7751 13.975 29.2591C13.6484 28.7431 13.2801 28.0219 12.87 27.0955C12.4601 26.1692 12.0349 25.0743 11.5945 23.811L11.2301 22.8948C11.0023 22.3054 10.6912 21.4471 10.2963 20.3208C9.90123 19.1941 9.55202 18.1043 9.24844 17.0514C9.12709 16.6093 8.94479 16.2726 8.70184 16.041L8.58783 15.946C8.51204 15.8619 8.39037 15.7726 8.22346 15.6775C8.05631 15.5824 7.88191 15.5143 7.69952 15.4724L1.45813 15.5352C0.820335 15.5352 0.387589 15.7355 0.159727 16.1357L0.0685342 16.325C0.0229777 16.4304 0 16.5988 0 16.8305C0 17.0622 0.0455565 17.3465 0.136749 17.6831C1.04788 20.6523 2.03871 23.5158 3.10925 26.2741C4.17979 29.0325 5.11006 31.2544 5.89952 32.9379C6.68914 34.6226 7.494 36.2126 8.3141 37.7072C9.13419 39.2023 9.67704 40.1604 9.94264 40.5813C10.2086 41.003 10.4174 41.3183 10.5693 41.5288L11.1388 42.2867C11.5033 42.7922 12.0385 43.3975 12.7446 44.1027C13.451 44.8084 14.2329 45.5031 15.0909 46.188C15.9491 46.8718 16.9474 47.4298 18.0865 47.8613C19.2254 48.2933 20.3339 48.4667 21.4122 48.3831H24.0318C24.5631 48.3194 24.9656 48.0878 25.2392 47.688L25.3298 47.5297C25.3907 47.404 25.4478 47.2088 25.5005 46.946C25.5537 46.6829 25.5802 46.3929 25.5802 46.0775C25.5647 45.1723 25.6144 44.3564 25.728 43.63C25.8415 42.9039 25.9709 42.3564 26.1157 41.9877C26.2603 41.6193 26.4235 41.3085 26.6052 41.0564C26.7873 40.8039 26.917 40.6509 26.9931 40.5982C27.0688 40.5453 27.1292 40.5093 27.1747 40.4877C27.5392 40.3194 27.9681 40.4824 28.4621 40.9777C28.9557 41.4725 29.4187 42.0835 29.8518 42.8096C30.2846 43.5364 30.8046 44.3519 31.4119 45.2571C32.0197 46.1627 32.551 46.8358 33.0064 47.2787L33.4618 47.6577C33.766 47.9106 34.1608 48.1422 34.6469 48.3527C35.132 48.5632 35.5571 48.6158 35.9221 48.5106L41.7533 48.3845C42.33 48.3845 42.7788 48.2521 43.0971 47.9893C43.4161 47.7262 43.6056 47.4362 43.6667 47.1208C43.7277 46.8051 43.7309 46.4469 43.6783 46.0464C43.6243 45.647 43.571 45.3676 43.5181 45.2098Z" fill="white"/>
</g>
<g clip-path="url(#clip1)">
<path d="M109.143 45.2098C109.09 45.0515 109.041 44.9201 108.995 44.8149C108.236 42.9194 106.785 40.5927 104.644 37.8343L104.599 37.7711L104.576 37.7401L104.553 37.7084H104.53C103.559 36.4239 102.943 35.5603 102.685 35.1181C102.214 34.2758 102.108 33.4232 102.366 32.5593C102.548 31.9066 103.232 30.5282 104.416 28.4223C105.039 27.3062 105.532 26.4117 105.897 25.7377C108.524 20.8946 109.663 17.7997 109.314 16.452L109.178 16.137C109.087 15.9474 108.851 15.7739 108.472 15.6157C108.092 15.4579 107.606 15.4318 107.014 15.537L100.454 15.5998C100.347 15.5476 100.196 15.5525 99.998 15.6157C99.8005 15.679 99.7017 15.7108 99.7017 15.7108L99.5875 15.7899L99.4969 15.8849C99.421 15.9477 99.3374 16.0582 99.2462 16.2162C99.1555 16.3736 99.0796 16.5584 99.019 16.7689C98.3048 19.3167 97.4927 21.6855 96.5814 23.8752C96.0195 25.181 95.5034 26.3125 95.0321 27.2707C94.5615 28.2285 94.1666 28.9341 93.848 29.3865C93.5289 29.8393 93.2408 30.202 92.9822 30.476C92.7239 30.7502 92.5268 30.866 92.3903 30.8236C92.2534 30.7812 92.1246 30.7392 92.0026 30.6972C91.7901 30.5076 91.6192 30.2497 91.4904 29.9233C91.361 29.597 91.2738 29.1862 91.2283 28.6914C91.183 28.1963 91.1562 27.7704 91.1485 27.4123C91.1414 27.0546 91.1447 26.5487 91.1601 25.896C91.1759 25.243 91.183 24.8012 91.183 24.5695C91.183 23.7693 91.1942 22.9007 91.2168 21.9637C91.2398 21.0267 91.2584 20.2843 91.2739 19.7374C91.2894 19.1899 91.2966 18.6107 91.2966 18C91.2966 17.3894 91.2698 16.9105 91.2168 16.5629C91.1645 16.2158 91.0841 15.8788 90.9783 15.5521C90.8717 15.2258 90.7158 14.9733 90.5113 14.7941C90.3063 14.6151 90.0515 14.4731 89.7482 14.3676C88.9433 14.115 87.9183 13.9784 86.6728 13.9571C83.8484 13.9151 82.0335 14.168 81.2287 14.7155C80.9098 14.9468 80.6212 15.2628 80.3632 15.6626C80.0898 16.126 80.0516 16.3789 80.249 16.4205C81.1603 16.6098 81.8054 17.0626 82.1851 17.7785L82.322 18.1578C82.4284 18.4315 82.5347 18.916 82.641 19.6107C82.7472 20.3055 82.8157 21.074 82.8459 21.9158C82.9217 23.4532 82.9217 24.7692 82.8459 25.864C82.7699 26.9591 82.6981 27.8117 82.6295 28.4224C82.561 29.033 82.4586 29.5279 82.322 29.9068C82.1851 30.2858 82.0941 30.5174 82.0485 30.6015C82.0029 30.6856 81.9649 30.7385 81.9348 30.7593C81.7374 30.8642 81.5321 30.9176 81.3196 30.9176C81.1069 30.9176 80.8488 30.7701 80.5452 30.4751C80.2416 30.1802 79.9265 29.7751 79.6 29.2591C79.2734 28.7431 78.9051 28.0219 78.495 27.0955C78.0851 26.1692 77.6599 25.0743 77.2195 23.811L76.8551 22.8948C76.6273 22.3054 76.3162 21.4471 75.9213 20.3208C75.5262 19.1941 75.177 18.1043 74.8734 17.0514C74.7521 16.6093 74.5698 16.2726 74.3268 16.041L74.2128 15.946C74.137 15.8619 74.0154 15.7726 73.8485 15.6775C73.6813 15.5824 73.5069 15.5143 73.3245 15.4724L67.0831 15.5352C66.4453 15.5352 66.0126 15.7355 65.7847 16.1357L65.6935 16.325C65.648 16.4304 65.625 16.5988 65.625 16.8305C65.625 17.0622 65.6706 17.3465 65.7617 17.6831C66.6729 20.6523 67.6637 23.5158 68.7342 26.2741C69.8048 29.0325 70.7351 31.2544 71.5245 32.9379C72.3141 34.6226 73.119 36.2126 73.9391 37.7072C74.7592 39.2023 75.302 40.1604 75.5676 40.5813C75.8336 41.003 76.0424 41.3183 76.1943 41.5288L76.7638 42.2867C77.1283 42.7922 77.6635 43.3975 78.3696 44.1027C79.076 44.8084 79.8579 45.5031 80.7159 46.188C81.5741 46.8718 82.5724 47.4298 83.7115 47.8613C84.8504 48.2933 85.9589 48.4667 87.0372 48.3831H89.6568C90.1881 48.3194 90.5906 48.0878 90.8642 47.688L90.9548 47.5297C91.0157 47.404 91.0728 47.2088 91.1255 46.946C91.1787 46.6829 91.2052 46.3929 91.2052 46.0775C91.1897 45.1723 91.2394 44.3564 91.353 43.63C91.4665 42.9039 91.5959 42.3564 91.7407 41.9877C91.8853 41.6193 92.0485 41.3085 92.2302 41.0564C92.4123 40.8039 92.542 40.6509 92.6181 40.5982C92.6938 40.5453 92.7542 40.5093 92.7997 40.4877C93.1642 40.3194 93.5931 40.4824 94.0871 40.9777C94.5807 41.4725 95.0437 42.0835 95.4768 42.8096C95.9096 43.5364 96.4296 44.3519 97.0369 45.2571C97.6447 46.1627 98.176 46.8358 98.6314 47.2787L99.0868 47.6577C99.391 47.9106 99.7858 48.1422 100.272 48.3527C100.757 48.5632 101.182 48.6158 101.547 48.5106L107.378 48.3845C107.955 48.3845 108.404 48.2521 108.722 47.9893C109.041 47.7262 109.231 47.4362 109.292 47.1208C109.353 46.8051 109.356 46.4469 109.303 46.0464C109.249 45.647 109.196 45.3676 109.143 45.2098Z" fill="white"/>
</g>
<g clip-path="url(#clip2)">
<path d="M174.768 45.2098C174.715 45.0515 174.666 44.9201 174.62 44.8149C173.861 42.9194 172.41 40.5927 170.269 37.8343L170.224 37.7711L170.201 37.7401L170.178 37.7084H170.155C169.184 36.4239 168.568 35.5603 168.31 35.1181C167.839 34.2758 167.733 33.4232 167.991 32.5593C168.173 31.9066 168.857 30.5282 170.041 28.4223C170.664 27.3062 171.157 26.4117 171.522 25.7377C174.149 20.8946 175.288 17.7997 174.939 16.452L174.803 16.137C174.712 15.9474 174.476 15.7739 174.097 15.6157C173.717 15.4579 173.231 15.4318 172.639 15.537L166.079 15.5998C165.972 15.5476 165.821 15.5525 165.623 15.6157C165.425 15.679 165.327 15.7108 165.327 15.7108L165.213 15.7899L165.122 15.8849C165.046 15.9477 164.962 16.0582 164.871 16.2162C164.781 16.3736 164.705 16.5584 164.644 16.7689C163.93 19.3167 163.118 21.6855 162.206 23.8752C161.644 25.181 161.128 26.3125 160.657 27.2707C160.186 28.2285 159.792 28.9341 159.473 29.3865C159.154 29.8393 158.866 30.202 158.607 30.476C158.349 30.7502 158.152 30.866 158.015 30.8236C157.878 30.7812 157.75 30.7392 157.628 30.6972C157.415 30.5076 157.244 30.2497 157.115 29.9233C156.986 29.597 156.899 29.1862 156.853 28.6914C156.808 28.1963 156.781 27.7704 156.774 27.4123C156.766 27.0546 156.77 26.5487 156.785 25.896C156.801 25.243 156.808 24.8012 156.808 24.5695C156.808 23.7693 156.819 22.9007 156.842 21.9637C156.865 21.0267 156.883 20.2843 156.899 19.7374C156.914 19.1899 156.922 18.6107 156.922 18C156.922 17.3894 156.895 16.9105 156.842 16.5629C156.789 16.2158 156.709 15.8788 156.603 15.5521C156.497 15.2258 156.341 14.9733 156.136 14.7941C155.931 14.6151 155.676 14.4731 155.373 14.3676C154.568 14.115 153.543 13.9784 152.298 13.9571C149.473 13.9151 147.659 14.168 146.854 14.7155C146.535 14.9468 146.246 15.2628 145.988 15.6626C145.715 16.126 145.677 16.3789 145.874 16.4205C146.785 16.6098 147.43 17.0626 147.81 17.7785L147.947 18.1578C148.053 18.4315 148.16 18.916 148.266 19.6107C148.372 20.3055 148.441 21.074 148.471 21.9158C148.547 23.4532 148.547 24.7692 148.471 25.864C148.395 26.9591 148.323 27.8117 148.255 28.4224C148.186 29.033 148.084 29.5279 147.947 29.9068C147.81 30.2858 147.719 30.5174 147.673 30.6015C147.628 30.6856 147.59 30.7385 147.56 30.7593C147.362 30.8642 147.157 30.9176 146.945 30.9176C146.732 30.9176 146.474 30.7701 146.17 30.4751C145.867 30.1802 145.552 29.7751 145.225 29.2591C144.898 28.7431 144.53 28.0219 144.12 27.0955C143.71 26.1692 143.285 25.0743 142.844 23.811L142.48 22.8948C142.252 22.3054 141.941 21.4471 141.546 20.3208C141.151 19.1941 140.802 18.1043 140.498 17.0514C140.377 16.6093 140.195 16.2726 139.952 16.041L139.838 15.946C139.762 15.8619 139.64 15.7726 139.473 15.6775C139.306 15.5824 139.132 15.5143 138.95 15.4724L132.708 15.5352C132.07 15.5352 131.638 15.7355 131.41 16.1357L131.319 16.325C131.273 16.4304 131.25 16.5988 131.25 16.8305C131.25 17.0622 131.296 17.3465 131.387 17.6831C132.298 20.6523 133.289 23.5158 134.359 26.2741C135.43 29.0325 136.36 31.2544 137.15 32.9379C137.939 34.6226 138.744 36.2126 139.564 37.7072C140.384 39.2023 140.927 40.1604 141.193 40.5813C141.459 41.003 141.667 41.3183 141.819 41.5288L142.389 42.2867C142.753 42.7922 143.288 43.3975 143.995 44.1027C144.701 44.8084 145.483 45.5031 146.341 46.188C147.199 46.8718 148.197 47.4298 149.336 47.8613C150.475 48.2933 151.584 48.4667 152.662 48.3831H155.282C155.813 48.3194 156.216 48.0878 156.489 47.688L156.58 47.5297C156.641 47.404 156.698 47.2088 156.75 46.946C156.804 46.6829 156.83 46.3929 156.83 46.0775C156.815 45.1723 156.864 44.3564 156.978 43.63C157.092 42.9039 157.221 42.3564 157.366 41.9877C157.51 41.6193 157.674 41.3085 157.855 41.0564C158.037 40.8039 158.167 40.6509 158.243 40.5982C158.319 40.5453 158.379 40.5093 158.425 40.4877C158.789 40.3194 159.218 40.4824 159.712 40.9777C160.206 41.4725 160.669 42.0835 161.102 42.8096C161.535 43.5364 162.055 44.3519 162.662 45.2571C163.27 46.1627 163.801 46.8358 164.256 47.2787L164.712 47.6577C165.016 47.9106 165.411 48.1422 165.897 48.3527C166.382 48.5632 166.807 48.6158 167.172 48.5106L173.003 48.3845C173.58 48.3845 174.029 48.2521 174.347 47.9893C174.666 47.7262 174.856 47.4362 174.917 47.1208C174.978 46.8051 174.981 46.4469 174.928 46.0464C174.874 45.647 174.821 45.3676 174.768 45.2098Z" fill="white"/>
</g>
<defs>
<clipPath id="clip0">
<rect width="43.75" height="60.6623" fill="white" transform="translate(0 0.926758)"/>
</clipPath>
<clipPath id="clip1">
<rect width="43.75" height="60.6623" fill="white" transform="translate(65.625 0.926758)"/>
</clipPath>
<clipPath id="clip2">
<rect width="43.75" height="60.6623" fill="white" transform="translate(131.25 0.926758)"/>
</clipPath>
</defs>
</svg>
