<svg width="101" height="45" viewBox="0 0 101 45" fill="none" xmlns="http://www.w3.org/2000/svg">
<path d="M11.0062 0.475012C10.8937 1.31876 10.8187 2.18126 10.7812 3.06251C10.7437 3.92501 10.725 4.82501 10.725 5.76251C10.725 7.43126 10.8094 9.13751 10.9781 10.8813C11.1469 12.6063 11.4 14.3313 11.7375 16.0563C12.075 17.7813 12.4969 19.4781 13.0031 21.1469C13.5094 22.7969 14.0906 24.3719 14.7469 25.8719C15.4219 27.3719 16.1719 28.7688 16.9969 30.0625C17.8406 31.3563 18.7687 32.5 19.7812 33.4938C20.8875 32.35 21.7781 31.0375 22.4531 29.5563C23.1469 28.0563 23.6812 26.5 24.0562 24.8875C24.45 23.2563 24.7125 21.6156 24.8437 19.9656C24.975 18.3156 25.05 16.75 25.0687 15.2688H31.2562C31.2562 16.75 31.3219 18.3063 31.4531 19.9375C31.5844 21.5688 31.8375 23.1906 32.2125 24.8031C32.5875 26.3969 33.1125 27.9438 33.7875 29.4438C34.4625 30.925 35.3437 32.2563 36.4312 33.4375C38.0062 31.7313 39.3656 29.8 40.5094 27.6438C41.6531 25.4688 42.6 23.1906 43.35 20.8094C44.1 18.4281 44.6531 15.9906 45.0094 13.4969C45.3656 11.0031 45.5437 8.55626 45.5437 6.15626C45.5437 4.15001 45.4312 2.21876 45.2062 0.362512C46.8562 0.437512 48.3281 0.550012 49.6219 0.700012C50.9344 0.850012 52.0687 1.00001 53.025 1.15001C54.1125 1.33751 55.0875 1.52501 55.95 1.71251V8.80001C55.3312 8.59376 54.7219 8.43439 54.1219 8.32189C53.5406 8.19064 52.9687 8.05001 52.4062 7.90001C52.4062 11.9313 52.0125 15.6719 51.225 19.1219C50.4562 22.5531 49.3781 25.7594 47.9906 28.7406C46.6031 31.7219 44.9437 34.4875 43.0125 37.0375C41.0812 39.5875 38.9625 41.9688 36.6562 44.1813C35.0062 42.5875 33.4687 40.8063 32.0437 38.8375C30.6375 36.8688 29.3437 34.6375 28.1625 32.1438C26.9437 34.6375 25.6125 36.8781 24.1687 38.8656C22.7437 40.8531 21.2062 42.6438 19.5562 44.2375C17.2687 42.025 15.1781 39.6438 13.2844 37.0938C11.3906 34.5438 9.76873 31.7781 8.41873 28.7969C7.06873 25.8156 6.01873 22.6094 5.26873 19.1781C4.51873 15.7281 4.14373 11.9875 4.14373 7.95626C3.46873 8.10626 2.81248 8.24689 2.17498 8.37814C1.55623 8.49064 0.937476 8.65001 0.318726 8.85626V1.71251C0.318726 1.73126 0.562476 1.69376 1.04998 1.60001C1.55623 1.50626 2.26873 1.39376 3.18748 1.26251C4.12498 1.11251 5.24998 0.971887 6.56248 0.840637C7.87498 0.690637 9.35623 0.568762 11.0062 0.475012Z" fill="#34547A"/>
<path d="M79.6312 0.137512C82.5187 0.137512 85.2375 0.390637 87.7875 0.896887C90.3375 1.40314 92.5687 2.10626 94.4812 3.00626C96.3937 3.90626 97.9031 4.99376 99.0094 6.26876C100.116 7.52501 100.669 8.91251 100.669 10.4313V32.8188C100.669 34.3375 100.116 35.7344 99.0094 37.0094C97.9031 38.2656 96.3937 39.3438 94.4812 40.2438C92.5687 41.1438 90.3375 41.8469 87.7875 42.3531C85.2375 42.8594 82.5187 43.1125 79.6312 43.1125C78.0187 43.1125 76.3687 43.0563 74.6812 42.9438C72.9937 42.8125 71.3531 42.6531 69.7594 42.4656C68.1844 42.2594 66.7031 42.025 65.3156 41.7625C63.9281 41.5 62.7375 41.2188 61.7437 40.9188V2.33126C62.7375 2.03126 63.9281 1.75001 65.3156 1.48751C66.7031 1.22501 68.1844 1.00001 69.7594 0.812512C71.3531 0.606262 72.9937 0.446887 74.6812 0.334387C76.3687 0.203137 78.0187 0.137512 79.6312 0.137512ZM79.7437 6.49376C78.0375 6.49376 76.5562 6.55001 75.3 6.66251C74.0437 6.75626 72.9656 6.88751 72.0656 7.05626C71.1656 7.20626 70.4156 7.37501 69.8156 7.56251C69.2344 7.73126 68.7562 7.88126 68.3812 8.01251V35.2375C68.7562 35.3875 69.2344 35.5469 69.8156 35.7156C70.4156 35.8844 71.1656 36.0531 72.0656 36.2219C72.9656 36.3719 74.0437 36.5031 75.3 36.6156C76.5562 36.7094 78.0375 36.7563 79.7437 36.7563C81.8437 36.7563 83.7281 36.5875 85.3969 36.25C87.0844 35.9125 88.5 35.4625 89.6437 34.9C90.8062 34.3375 91.6969 33.6906 92.3156 32.9594C92.9344 32.2094 93.2437 31.4313 93.2437 30.625V12.625C93.2437 11.8188 92.9344 11.05 92.3156 10.3188C91.6969 9.56876 90.8062 8.91251 89.6437 8.35001C88.5 7.78751 87.0844 7.33751 85.3969 7.00001C83.7281 6.66251 81.8437 6.49376 79.7437 6.49376Z" fill="#34547A"/>
</svg>
