<svg width="100" height="100" viewBox="0 0 100 100" fill="none" xmlns="http://www.w3.org/2000/svg">
<g clip-path="url(#clip0)">
<path d="M86.2534 36.4207C66.1706 16.338 33.4966 16.338 13.4139 36.4207L0 49.8329L13.7466 63.5795C23.7872 73.62 36.9764 78.642 50.1672 78.642C63.3581 78.642 76.5456 73.6217 86.5878 63.5795L100.002 50.1657L86.2534 36.4207ZM84.1976 61.191C65.4324 79.9545 34.9003 79.9545 16.1351 61.191L4.77703 49.8329L15.8024 38.8075C34.5676 20.044 65.0997 20.044 83.8649 38.8075L95.223 50.1657L84.1976 61.191Z" fill="white"/>
<path d="M48.2635 36.436C41.7433 36.436 36.4392 41.7401 36.4392 48.2604C36.4392 49.1928 37.196 49.9496 38.1284 49.9496C39.0608 49.9496 39.8176 49.1928 39.8176 48.2604C39.8176 43.6033 43.6064 39.8144 48.2635 39.8144C49.196 39.8144 49.9527 39.0577 49.9527 38.1252C49.9527 37.1928 49.1977 36.436 48.2635 36.436Z" fill="white"/>
<path d="M49.9526 27.99C37.8445 27.99 27.9932 37.8413 27.9932 49.9494C27.9932 62.0576 37.8445 71.9089 49.9526 71.9089C62.0607 71.9089 71.9121 62.0576 71.9121 49.9494C71.9121 37.8413 62.0624 27.99 49.9526 27.99ZM49.9526 68.5305C39.7077 68.5305 31.3715 60.1944 31.3715 49.9494C31.3715 39.7045 39.7077 31.3684 49.9526 31.3684C60.1976 31.3684 68.5337 39.7045 68.5337 49.9494C68.5337 60.1944 60.1992 68.5305 49.9526 68.5305Z" fill="white"/>
</g>
<defs>
<clipPath id="clip0">
<rect width="100" height="100" fill="white"/>
</clipPath>
</defs>
</svg>
